<svg width="105" height="105" viewBox="0 0 105 105" fill="none" xmlns="http://www.w3.org/2000/svg">
<path d="M26.25 11.3334C25.0897 11.3334 23.9769 11.7899 23.1564 12.6026C22.3359 13.4152 21.875 14.5174 21.875 15.6667V24.3334C21.875 25.4826 22.3359 26.5848 23.1564 27.3975C23.9769 28.2102 25.0897 28.6667 26.25 28.6667C27.4103 28.6667 28.5231 28.2102 29.3436 27.3975C30.1641 26.5848 30.625 25.4826 30.625 24.3334V15.6667C30.625 14.5174 30.1641 13.4152 29.3436 12.6026C28.5231 11.7899 27.4103 11.3334 26.25 11.3334Z" fill="#F9F9FF"/>
<path fill-rule="evenodd" clip-rule="evenodd" d="M56.875 93.6667C63.0786 93.6659 69.0816 91.4897 73.82 87.5237C78.5585 83.5578 81.7262 78.0583 82.7619 72H83.125C87.7663 72 92.2175 70.1738 95.4994 66.9232C98.7812 63.6726 100.625 59.2638 100.625 54.6667C100.625 50.0696 98.7812 45.6608 95.4994 42.4101C92.2175 39.1595 87.7663 37.3333 83.125 37.3333V33H4.375V67.6667C4.375 74.5623 7.14062 81.1755 12.0634 86.0514C16.9863 90.9274 23.6631 93.6667 30.625 93.6667H56.875ZM13.125 41.6667V67.6667C13.125 72.2637 14.9687 76.6725 18.2506 79.9232C21.5325 83.1738 25.9837 85 30.625 85H56.875C61.5163 85 65.9675 83.1738 69.2494 79.9232C72.5313 76.6725 74.375 72.2637 74.375 67.6667V41.6667H13.125ZM91.875 54.6667C91.875 56.9652 90.9531 59.1696 89.3122 60.7949C87.6712 62.4202 85.4456 63.3333 83.125 63.3333V46C85.4456 46 87.6712 46.9131 89.3122 48.5384C90.9531 50.1637 91.875 52.3681 91.875 54.6667Z" fill="#F9F9FF"/>
<path d="M39.375 15.6667C39.375 14.5174 39.8359 13.4152 40.6564 12.6026C41.4769 11.7899 42.5897 11.3334 43.75 11.3334C44.9103 11.3334 46.0231 11.7899 46.8436 12.6026C47.6641 13.4152 48.125 14.5174 48.125 15.6667V24.3334C48.125 25.4826 47.6641 26.5848 46.8436 27.3975C46.0231 28.2102 44.9103 28.6667 43.75 28.6667C42.5897 28.6667 41.4769 28.2102 40.6564 27.3975C39.8359 26.5848 39.375 25.4826 39.375 24.3334V15.6667Z" fill="#F9F9FF"/>
<path d="M61.25 11.3334C60.0897 11.3334 58.9769 11.7899 58.1564 12.6026C57.3359 13.4152 56.875 14.5174 56.875 15.6667V24.3334C56.875 25.4826 57.3359 26.5848 58.1564 27.3975C58.9769 28.2102 60.0897 28.6667 61.25 28.6667C62.4103 28.6667 63.5231 28.2102 64.3436 27.3975C65.1641 26.5848 65.625 25.4826 65.625 24.3334V15.6667C65.625 14.5174 65.1641 13.4152 64.3436 12.6026C63.5231 11.7899 62.4103 11.3334 61.25 11.3334Z" fill="#F9F9FF"/>
</svg>
