<svg width="105" height="105" viewBox="0 0 105 105" fill="none" xmlns="http://www.w3.org/2000/svg">
<g clip-path="url(#clip0)">
<path d="M79.754 2.2095C79.4733 1.69297 79.0567 1.26133 78.5483 0.960354C78.0399 0.659384 77.4588 0.500308 76.8665 0.5L28.14 0.5C27.5477 0.500308 26.9666 0.659384 26.4582 0.960354C25.9498 1.26133 25.5332 1.69297 25.2525 2.2095C21.6168 8.9175 19.694 16.75 19.694 24.875C19.694 35.5805 23.0147 45.675 29.039 53.306C33.6984 59.2015 39.5456 63.108 45.944 64.7005V98H36.1003C35.23 98 34.3954 98.3424 33.7801 98.9519C33.1647 99.5614 32.819 100.388 32.819 101.25C32.819 102.112 33.1647 102.939 33.7801 103.548C34.3954 104.158 35.23 104.5 36.1003 104.5H68.9128C69.783 104.5 70.6176 104.158 71.233 103.548C71.8483 102.939 72.194 102.112 72.194 101.25C72.194 100.388 71.8483 99.5614 71.233 98.9519C70.6176 98.3424 69.783 98 68.9128 98H59.069V64.7005C65.4675 63.1145 71.3147 59.2015 75.974 53.306C81.9984 45.675 85.319 35.5805 85.319 24.875C85.319 16.7565 83.3962 8.9175 79.7606 2.2095H79.754ZM30.1547 7H74.8387C77.6861 13.0995 79.0139 19.7868 78.7106 26.5H26.2697C25.9663 19.7868 27.2941 13.0995 30.1415 7H30.1547Z" fill="#F9F9FF"/>
</g>
<defs>
<clipPath id="clip0">
<rect width="105" height="104" fill="white" transform="translate(0 0.5)"/>
</clipPath>
</defs>
</svg>
