<svg width="110" height="109" viewBox="0 0 110 109" fill="none" xmlns="http://www.w3.org/2000/svg">
<path d="M52.2 2.18005C38.9391 2.18005 26.2214 7.44803 16.8446 16.8251C7.46781 26.2022 2.19997 38.9202 2.19997 52.1814C2.20031 58.7476 3.49394 65.2495 6.00699 71.3158C8.52004 77.3821 12.2033 82.894 16.8465 87.5368C21.4896 92.1797 27.0018 95.8624 33.0682 98.3749C39.1346 100.887 45.6365 102.18 52.2026 102.18C58.7687 102.18 65.2704 100.886 71.3365 98.3729C77.4027 95.8598 82.9145 92.1765 87.5571 87.5332C92.1998 82.8899 95.8825 77.3776 98.3949 71.311C100.907 65.2444 102.2 58.7424 102.2 52.1761C102.2 24.5661 79.8093 2.18005 52.2 2.18005ZM52.2 91.7605C46.9639 91.8206 41.768 90.8411 36.9132 88.8789C32.0584 86.9167 27.6411 84.0107 23.9173 80.3292C20.1934 76.6477 17.237 72.264 15.2193 67.4318C13.2015 62.5997 12.1626 57.4153 12.1626 52.1788C12.1626 46.9423 13.2015 41.7578 15.2193 36.9257C17.237 32.0935 20.1934 27.7098 23.9173 24.0283C27.6411 20.3468 32.0584 17.4408 36.9132 15.4786C41.768 13.5164 46.9639 12.5369 52.2 12.597C57.436 12.5369 62.6319 13.5164 67.4867 15.4786C72.3415 17.4408 76.7588 20.3468 80.4827 24.0283C84.2065 27.7098 87.1629 32.0935 89.1806 36.9257C91.1984 41.7578 92.2373 46.9423 92.2373 52.1788C92.2373 57.4153 91.1984 62.5997 89.1806 67.4318C87.1629 72.264 84.2065 76.6477 80.4827 80.3292C76.7588 84.0107 72.3415 86.9167 67.4867 88.8789C62.6319 90.8411 57.436 91.8206 52.2 91.7605ZM39.1843 50.8792C43.4968 50.8792 46.9916 46.801 46.9916 41.7644C46.9916 36.7278 43.4916 32.6496 39.1791 32.6496C34.8666 32.6496 31.3666 36.7278 31.3666 41.7644C31.3666 46.801 34.8666 50.8792 39.1843 50.8792ZM65.2208 50.8792C69.5385 50.8792 73.0333 46.801 73.0333 41.7644C73.0333 36.7278 69.5333 32.6496 65.2208 32.6496C60.9083 32.6496 57.4083 36.733 57.4083 41.7644C57.4083 46.7958 60.9083 50.8792 65.2208 50.8792ZM74.8093 59.1399C73.8901 58.6761 72.8258 58.5909 71.8444 58.9024C70.8631 59.214 70.0428 59.8975 69.5593 60.8066C69.3823 61.1503 65.0333 69.1037 52.2052 69.1037C39.4396 69.1037 35.0645 61.2233 34.8458 60.8118C34.3775 59.887 33.5611 59.186 32.576 58.8632C31.5909 58.5404 30.518 58.6221 29.5932 59.0904C28.6684 59.5587 27.9675 60.3752 27.6447 61.3602C27.3218 62.3453 27.4036 63.4183 27.8718 64.3431C28.1323 64.8588 34.3718 76.9164 52.2052 76.9164C70.0437 76.9164 76.2729 64.8536 76.5281 64.3379C76.987 63.4203 77.0638 62.3582 76.7417 61.3841C76.4196 60.41 75.7248 59.6031 74.8093 59.1399Z" fill="#F9F9FF"/>
</svg>
